<svg width="43" height="43" viewBox="0 0 43 43" fill="none" xmlns="http://www.w3.org/2000/svg">
<path d="M21.2313 2.15039C17.3125 2.15501 13.5555 3.7138 10.7845 6.48483C8.01344 9.25585 6.45465 13.0128 6.45003 16.9316C6.44533 20.1341 7.49141 23.2497 9.42778 25.8004C9.42778 25.8004 9.8309 26.3312 9.89675 26.4078L21.2313 39.7754L32.5712 26.401C32.6303 26.3298 33.0348 25.8004 33.0348 25.8004L33.0361 25.7964C34.9715 23.2467 36.0171 20.1326 36.0125 16.9316C36.0079 13.0128 34.4491 9.25585 31.6781 6.48483C28.9071 3.7138 25.1501 2.15501 21.2313 2.15039ZM21.2313 22.3066C20.1682 22.3066 19.129 21.9914 18.2451 21.4008C17.3612 20.8102 16.6722 19.9707 16.2654 18.9886C15.8586 18.0064 15.7522 16.9257 15.9596 15.883C16.167 14.8404 16.6789 13.8826 17.4306 13.1309C18.1823 12.3792 19.14 11.8673 20.1827 11.6599C21.2253 11.4525 22.306 11.559 23.2882 11.9658C24.2704 12.3726 25.1098 13.0615 25.7004 13.9455C26.291 14.8294 26.6063 15.8686 26.6063 16.9316C26.6045 18.3566 26.0376 19.7228 25.03 20.7304C24.0224 21.738 22.6563 22.3049 21.2313 22.3066Z" fill="#018ABE"/>
</svg>
